<mxfile host="app.diagrams.net" agent="Mozilla/5.0 (Windows NT 10.0; Win64; x64) AppleWebKit/537.36 (KHTML, like Gecko) Chrome/135.0.0.0 Safari/537.36" version="26.2.13">
  <diagram name="第 1 页" id="i_lu6gf9jANUXiw85ay-">
    <mxGraphModel dx="1215" dy="631" grid="0" gridSize="10" guides="1" tooltips="1" connect="1" arrows="1" fold="1" page="1" pageScale="1" pageWidth="827" pageHeight="1169" math="0" shadow="0">
      <root>
        <mxCell id="0" />
        <mxCell id="1" parent="0" />
        <mxCell id="-_rxrSTBlriCxvDMtsWQ-1" value="IF1&lt;div&gt;-&lt;/div&gt;&lt;div&gt;IF2&lt;/div&gt;" style="rounded=0;whiteSpace=wrap;html=1;fillColor=#b1ddf0;strokeColor=#10739e;" vertex="1" parent="1">
          <mxGeometry x="130" y="180" width="30" height="280" as="geometry" />
        </mxCell>
        <mxCell id="-_rxrSTBlriCxvDMtsWQ-2" value="" style="triangle;whiteSpace=wrap;html=1;rotation=-90;fillColor=#d5e8d4;strokeColor=#82b366;gradientColor=#97d077;" vertex="1" parent="1">
          <mxGeometry x="135" y="435" width="20" height="30" as="geometry" />
        </mxCell>
        <mxCell id="-_rxrSTBlriCxvDMtsWQ-3" value="IF2&lt;div&gt;-&lt;/div&gt;&lt;div&gt;ID&lt;/div&gt;" style="rounded=0;whiteSpace=wrap;html=1;fillColor=#b1ddf0;strokeColor=#10739e;" vertex="1" parent="1">
          <mxGeometry x="270" y="180" width="30" height="280" as="geometry" />
        </mxCell>
        <mxCell id="-_rxrSTBlriCxvDMtsWQ-4" value="" style="triangle;whiteSpace=wrap;html=1;rotation=-90;fillColor=#d5e8d4;strokeColor=#82b366;gradientColor=#97d077;" vertex="1" parent="1">
          <mxGeometry x="275" y="435" width="20" height="30" as="geometry" />
        </mxCell>
        <mxCell id="-_rxrSTBlriCxvDMtsWQ-5" value="ID&lt;div&gt;-&lt;/div&gt;&lt;div&gt;EX&lt;/div&gt;" style="rounded=0;whiteSpace=wrap;html=1;fillColor=#b1ddf0;strokeColor=#10739e;" vertex="1" parent="1">
          <mxGeometry x="410" y="180" width="30" height="280" as="geometry" />
        </mxCell>
        <mxCell id="-_rxrSTBlriCxvDMtsWQ-6" value="" style="triangle;whiteSpace=wrap;html=1;rotation=-90;fillColor=#d5e8d4;strokeColor=#82b366;gradientColor=#97d077;" vertex="1" parent="1">
          <mxGeometry x="415" y="435" width="20" height="30" as="geometry" />
        </mxCell>
        <mxCell id="-_rxrSTBlriCxvDMtsWQ-7" value="EX&lt;br&gt;&lt;div&gt;-&lt;/div&gt;&lt;div&gt;LS&lt;/div&gt;" style="rounded=0;whiteSpace=wrap;html=1;fillColor=#b1ddf0;strokeColor=#10739e;" vertex="1" parent="1">
          <mxGeometry x="550" y="180" width="30" height="280" as="geometry" />
        </mxCell>
        <mxCell id="-_rxrSTBlriCxvDMtsWQ-8" value="" style="triangle;whiteSpace=wrap;html=1;rotation=-90;fillColor=#d5e8d4;strokeColor=#82b366;gradientColor=#97d077;" vertex="1" parent="1">
          <mxGeometry x="555" y="435" width="20" height="30" as="geometry" />
        </mxCell>
        <mxCell id="-_rxrSTBlriCxvDMtsWQ-9" value="LS&lt;div&gt;-&lt;/div&gt;&lt;div&gt;WB&lt;/div&gt;" style="rounded=0;whiteSpace=wrap;html=1;fillColor=#b1ddf0;strokeColor=#10739e;" vertex="1" parent="1">
          <mxGeometry x="690" y="180" width="30" height="280" as="geometry" />
        </mxCell>
        <mxCell id="-_rxrSTBlriCxvDMtsWQ-10" value="" style="triangle;whiteSpace=wrap;html=1;rotation=-90;fillColor=#d5e8d4;strokeColor=#82b366;gradientColor=#97d077;" vertex="1" parent="1">
          <mxGeometry x="695" y="435" width="20" height="30" as="geometry" />
        </mxCell>
        <mxCell id="-_rxrSTBlriCxvDMtsWQ-11" value="" style="rounded=1;whiteSpace=wrap;html=1;fillColor=#cce5ff;strokeColor=#36393d;" vertex="1" parent="1">
          <mxGeometry x="20" y="210" width="40" height="110" as="geometry" />
        </mxCell>
        <mxCell id="-_rxrSTBlriCxvDMtsWQ-12" value="" style="triangle;whiteSpace=wrap;html=1;rotation=-90;fillColor=#d5e8d4;strokeColor=#82b366;gradientColor=#97d077;" vertex="1" parent="1">
          <mxGeometry x="27.88" y="289.63" width="25" height="35.75" as="geometry" />
        </mxCell>
      </root>
    </mxGraphModel>
  </diagram>
</mxfile>
